<svg xmlns="http://www.w3.org/2000/svg" width="360" height="92" viewBox="0 0 360 92" role="img" aria-label="Build with: Radix UI"><defs><linearGradient id="s-BuildwithRadixUI" x1="0" y1="0" x2="1" y2="1"><stop offset="0%" stop-color="#c4c4c4"/><stop offset="100%" stop-color="#d1d1d1"/></linearGradient><linearGradient id="b-BuildwithRadixUI" x1="0" y1="0" x2="1" y2="1"><stop offset="0%" stop-color="#000000" stop-opacity="0.85"/><stop offset="50%" stop-color="#000000" stop-opacity="0.6"/><stop offset="100%" stop-color="#8B5CF6" stop-opacity="0.85"/></linearGradient><radialGradient id="sh-BuildwithRadixUI" cx="20%" cy="0%" r="80%"><stop offset="0%" stop-color="#ffffff" stop-opacity="0.18"/><stop offset="60%" stop-color="#ffffff" stop-opacity="0"/></radialGradient><!--[-1--><!--]--></defs><rect x="1" y="1" width="358" height="90" rx="18" ry="18" fill="url(#s-BuildwithRadixUI)"/><rect x="1" y="1" width="358" height="90" rx="18" ry="18" fill="url(#sh-BuildwithRadixUI)"/><rect x="1" y="1" width="358" height="90" rx="18" ry="18" fill="none" stroke="url(#b-BuildwithRadixUI)" stroke-width="1.4"/><g transform="translate(22 28)"><!--[-1--><svg preserveAspectRatio="xMidYMid meet" width="36" height="36" viewBox="4 0 17 25" color="#000000"><path d="M12 25a8 8 0 1 1 0-16v16zM12 0H4v8h8V0zM17 8a4 4 0 1 0 0-8 4 4 0 0 0 0 8z"/></svg><!--]--></g><text x="74" y="38" fill="#000000" style="font-family: Inter, system-ui, sans-serif; font-weight: 500; font-size: 12px; letter-spacing: 0.06em; text-transform: uppercase;">Build with</text><text x="74" y="64" fill="#000000" style="font-family: Inter, system-ui, sans-serif; font-weight: 700; font-size: 22px; letter-spacing: -0.01em;">Radix UI</text></svg>